<?xml version="1.0" encoding="utf-8"?>
<!-- Generator: Adobe Illustrator 23.0.2, SVG Export Plug-In . SVG Version: 6.00 Build 0)  -->
<svg version="1.1" id="Layer_1" xmlns="http://www.w3.org/2000/svg" xmlns:xlink="http://www.w3.org/1999/xlink" x="0px" y="0px"
	 viewBox="0 0 2500 2500" style="enable-background:new 0 0 2500 2500;" xml:space="preserve">
<style type="text/css">
	.st0{fill:none;}
	.st1{font-family:'AvenirNext-Regular';}
	.st2{font-size:336px;}
	.st3{fill:url(#SVGID_1_);}
	.st4{fill:url(#SVGID_2_);}
	.st5{fill:url(#SVGID_3_);}
	.st6{fill:url(#SVGID_4_);}
	.st7{fill:#0288D1;stroke:#0288D1;stroke-miterlimit:10;}
	.st8{font-family:'Roboto-Medium';}
	.st9{font-size:338px;}
</style>
<rect x="381.84" y="911.68" class="st0" width="1061.16" height="338.32"/>
<text transform="matrix(1 0 0 1 381.8389 1165.6924)" class="st1 st2">Survey</text>
<g>
	<g>
		<linearGradient id="SVGID_1_" gradientUnits="userSpaceOnUse" x1="355.0247" y1="1062.0664" x2="84.917" y2="981.7867">
			<stop  offset="0" style="stop-color:#0288D1"/>
			<stop  offset="0.0397" style="stop-color:#329EDA"/>
			<stop  offset="0.1168" style="stop-color:#89C7E9"/>
			<stop  offset="0.1798" style="stop-color:#C8E5F5"/>
			<stop  offset="0.2254" style="stop-color:#F0F8FC"/>
			<stop  offset="0.2491" style="stop-color:#FFFFFF"/>
		</linearGradient>
		<path class="st3" d="M1312.16,1517.47h125.43v32.18h-173.13v-25.21l120.64-182.9h-119.65v-32.18h168.01v24.1L1312.16,1517.47z"/>
		<linearGradient id="SVGID_2_" gradientUnits="userSpaceOnUse" x1="355.0247" y1="1062.0664" x2="84.917" y2="981.7867">
			<stop  offset="0" style="stop-color:#0288D1"/>
			<stop  offset="0.0397" style="stop-color:#329EDA"/>
			<stop  offset="0.1168" style="stop-color:#89C7E9"/>
			<stop  offset="0.1798" style="stop-color:#C8E5F5"/>
			<stop  offset="0.2254" style="stop-color:#F0F8FC"/>
			<stop  offset="0.2491" style="stop-color:#FFFFFF"/>
		</linearGradient>
		<path class="st4" d="M1582.98,1523.57c-5.61,9.46-12.71,16.75-21.29,21.87c-8.58,5.12-18.48,7.67-29.71,7.67
			c-19.14,0-34.11-6.11-44.89-18.32c-10.78-12.21-16.17-31.19-16.17-56.94v-106.78h39.94v107.11c0,15.62,2.53,26.57,7.59,32.84
			c5.06,6.27,12.71,9.41,22.94,9.41c9.68,0,17.8-1.73,24.34-5.2c6.54-3.47,11.69-8.5,15.43-15.1v-129.06h40.1v178.57h-34.99
			L1582.98,1523.57z"/>
		<linearGradient id="SVGID_3_" gradientUnits="userSpaceOnUse" x1="355.0247" y1="1062.0664" x2="84.917" y2="981.7867">
			<stop  offset="0" style="stop-color:#0288D1"/>
			<stop  offset="0.0397" style="stop-color:#329EDA"/>
			<stop  offset="0.1168" style="stop-color:#89C7E9"/>
			<stop  offset="0.1798" style="stop-color:#C8E5F5"/>
			<stop  offset="0.2254" style="stop-color:#F0F8FC"/>
			<stop  offset="0.2491" style="stop-color:#FFFFFF"/>
		</linearGradient>
		<path class="st5" d="M1705.94,1549.65h-40.1v-257.46h40.1V1549.65z"/>
		<linearGradient id="SVGID_4_" gradientUnits="userSpaceOnUse" x1="355.0247" y1="1062.0664" x2="84.917" y2="981.7867">
			<stop  offset="0" style="stop-color:#0288D1"/>
			<stop  offset="0.0397" style="stop-color:#329EDA"/>
			<stop  offset="0.1168" style="stop-color:#89C7E9"/>
			<stop  offset="0.1798" style="stop-color:#C8E5F5"/>
			<stop  offset="0.2254" style="stop-color:#F0F8FC"/>
			<stop  offset="0.2491" style="stop-color:#FFFFFF"/>
		</linearGradient>
		<path class="st6" d="M1862.07,1523.57c-5.61,9.46-12.71,16.75-21.29,21.87c-8.58,5.12-18.48,7.67-29.71,7.67
			c-19.14,0-34.11-6.11-44.89-18.32c-10.78-12.21-16.17-31.19-16.17-56.94v-106.78h39.94v107.11c0,15.62,2.53,26.57,7.59,32.84
			c5.06,6.27,12.71,9.41,22.94,9.41c9.68,0,17.8-1.73,24.34-5.2c6.54-3.47,11.69-8.5,15.43-15.1v-129.06h40.1v178.57h-34.99
			L1862.07,1523.57z"/>
	</g>
	<rect x="1249.94" y="1292.1" class="st0" width="677.06" height="265.9"/>
	<text transform="matrix(1 0 0 1 1249.9355 1549.6504)" class="st7 st8 st9">Zulu</text>
</g>
</svg>
